<svg data-noselect="" viewBox="0 0 400 300" width="400" height="300" preserveAspectRatio="none" version="1.1" xmlns="http://www.w3.org/2000/svg" style="background: rgba(255, 255, 255, 0);"><defs><filter id="filter_shadow_shapge_mnjJ7q958v" width="1000%" height="1000%"><feGaussianBlur in="SourceAlpha" stdDeviation="1"></feGaussianBlur> <feOffset dx="2" dy="2" result="offsetblur"></feOffset><feComponentTransfer><feFuncA type="linear" slope="0.15"></feFuncA></feComponentTransfer><feMerge><feMergeNode></feMergeNode><feMergeNode in="SourceGraphic"></feMergeNode></feMerge></filter></defs> <g id="shape_KwkmSMJ51J" transform="translate(-36.536806868665096,18.151429906657828) rotate(0,300.5,239.97526501766788) scale(0.5494256671979714,0.5494256671979714)" filter="" style="cursor: move; opacity: 1;"><g><rect fill="rgba(0,0,0,0)" width="621" height="499.95053003533576" x="-10" y="-10"></rect><svg version="1.1" id="图层_1" xmlns="http://www.w3.org/2000/svg" xmlns:xlink="http://www.w3.org/1999/xlink" x="0px" y="0px" width="601" height="479.95053003533576" viewBox="0 0 283.46 226.77" style="enable-background:new 0 0 283.46 226.77;" xml:space="preserve" preserveAspectRatio="none" data-parent="shape_KwkmSMJ51J">
<g>
	<linearGradient id="SVGID_1_" gradientUnits="userSpaceOnUse" x1="118.5573" y1="79.6716" x2="118.5573" y2="155.2986">
		<stop offset="0" style="" stop-color="#DC2E80"></stop>
		<stop offset="0.0544" style="" stop-color="#BA3584"></stop>
		<stop offset="0.1098" style="" stop-color="#983889"></stop>
		<stop offset="0.1587" style="" stop-color="#7C398B"></stop>
		<stop offset="0.1986" style="" stop-color="#693A8D"></stop>
		<stop offset="0.2245" style="" stop-color="#623A8E"></stop>
		<stop offset="0.3608" style="" stop-color="#5D5E9B"></stop>
		<stop offset="0.5226" style="" stop-color="#5481A9"></stop>
		<stop offset="0.6727" style="" stop-color="#4999B0"></stop>
		<stop offset="0.8062" style="" stop-color="#3EA9B4"></stop>
		<stop offset="0.9181" style="" stop-color="#37B2B5"></stop>
		<stop offset="0.9949" style="" stop-color="#34B5B5"></stop>
	</linearGradient>
	<path style="" d="M127.402,144.485c0,4.885-3.96,8.845-8.845,8.845l0,0c-4.885,0-8.845-3.96-8.845-8.845V82.7
		c0-4.886,3.96-8.846,8.845-8.846l0,0c4.884,0,8.845,3.96,8.845,8.846V144.485z" fill="url(#SVGID_1_)"></path>
	<linearGradient id="SVGID_2_" gradientUnits="userSpaceOnUse" x1="173.766" y1="103.9835" x2="125.8046" y2="136.7269">
		<stop offset="0" style="" stop-color="#B7CD40"></stop>
		<stop offset="0.2785" style="" stop-color="#B1C840"></stop>
		<stop offset="0.6726" style="" stop-color="#A2B83F"></stop>
		<stop offset="1" style="" stop-color="#92A73E"></stop>
	</linearGradient>
	<path style="" d="M168.536,144.485c0,4.885-3.96,8.845-8.846,8.845l0,0c-4.884,0-8.843-3.96-8.843-8.845V82.7
		c0-4.886,3.959-8.846,8.843-8.846l0,0c4.886,0,8.846,3.96,8.846,8.846V144.485z" fill="url(#SVGID_2_)"></path>
	<linearGradient id="SVGID_3_" gradientUnits="userSpaceOnUse" x1="117.6206" y1="131.3633" x2="170.5027" y2="112.4254">
		<stop offset="0" style="" stop-color="#28569E"></stop>
		<stop offset="1" style="" stop-color="#34B5B5"></stop>
	</linearGradient>
	<path style="" d="M115.341,152.691c0,0-6.644-2.388-5.281-10.703c1.787-10.898,30.433-19.615,58.779-20.367
		c0,0,12.684-0.852,12.684-10.541c0-10.719-9.559-12.506-20.814-11.612c-10.07,0.8-39.304,4.377-52.435,24.029
		c-6.807,10.188-4.611,19.706-0.983,24.207C110.597,151.805,115.341,152.691,115.341,152.691z" fill="url(#SVGID_3_)"></path>
</g>
</svg></g> <!----></g><g id="shapge_mnjJ7q958v" transform="translate(197.1855738607718,124.41874149530271) rotate(0,144.106,28) scale(0.5494256671979714,0.5494256671979714)" filter="url(#filter_shadow_shapge_mnjJ7q958v)" style="cursor: move; opacity: 1;"><g><svg xmlns="http://www.w3.org/2000/svg" version="1.1" xmlns:xlink="http://www.w3.org/1999/xlink" overflow="hidden" style="top:0; left: 0" width="288.212" height="56" viewBox="0 0 288.212 56" preserveAspectRatio="none" data-parent="shapge_mnjJ7q958v"><rect fill="rgba(0,0,0,0)" width="288.212" height="56"></rect> <rect opacity="0"></rect><g transform="translate(0 0)" data-width="268.7"><path fill="#1a99d0" d="M9.65 0L5 0L5-36.65L9.65-36.65L9.65-21.30L26.75-21.30L26.75-36.65L31.35-36.65L31.35 0L26.75 0L26.75-17.30L9.65-17.30L9.65 0Z" transform="translate(0 44)" stroke="#1a99d0" stroke-width="2" stroke-linecap="round" stroke-linejoin="round"></path><path fill="#1a99d0" d="M10.85 0.65L10.85 0.65L10.85 0.65Q7.45 0.65 5.18-1.38L5.18-1.38L5.18-1.38Q2.90-3.40 2.90-7.05L2.90-7.05L2.90-7.05Q2.90-11.50 6.95-13.88L6.95-13.88L6.95-13.88Q11-16.25 19.60-17.20L19.60-17.20L19.60-17.20Q19.60-18.95 19.13-20.53L19.13-20.53L19.13-20.53Q18.65-22.10 17.45-23.08L17.45-23.08L17.45-23.08Q16.25-24.05 14-24.05L14-24.05L14-24.05Q11.65-24.05 9.58-23.18L9.58-23.18L9.58-23.18Q7.50-22.30 5.85-21.15L5.85-21.15L4.05-24.30L4.05-24.30Q5.95-25.55 8.72-26.70L8.72-26.70L8.72-26.70Q11.50-27.85 14.75-27.85L14.75-27.85L14.75-27.85Q19.70-27.85 21.93-24.80L21.93-24.80L21.93-24.80Q24.15-21.75 24.15-16.70L24.15-16.70L24.15 0L20.40 0L20-3.25L19.85-3.25L19.85-3.25Q17.90-1.60 15.63-0.48L15.63-0.48L15.63-0.48Q13.35 0.65 10.85 0.65ZM12.15-3L12.15-3L12.15-3Q14.15-3 15.90-3.93L15.90-3.93L15.90-3.93Q17.65-4.85 19.60-6.60L19.60-6.60L19.60-14.20L19.60-14.20Q12.85-13.40 10.10-11.70L10.10-11.70L10.10-11.70Q7.35-10 7.35-7.35L7.35-7.35L7.35-7.35Q7.35-5.05 8.75-4.03L8.75-4.03L8.75-4.03Q10.15-3 12.15-3Z" transform="translate(36.4 44)" stroke="#1a99d0" stroke-width="2" stroke-linecap="round" stroke-linejoin="round"></path><path fill="#1a99d0" d="M15.15 0.65L15.15 0.65L15.15 0.65Q11.85 0.65 8.97-1.03L8.97-1.03L8.97-1.03Q6.10-2.70 4.33-5.88L4.33-5.88L4.33-5.88Q2.55-9.05 2.55-13.55L2.55-13.55L2.55-13.55Q2.55-18.10 4.33-21.28L4.33-21.28L4.33-21.28Q6.10-24.45 8.97-26.15L8.97-26.15L8.97-26.15Q11.85-27.85 15.15-27.85L15.15-27.85L15.15-27.85Q18.50-27.85 21.35-26.15L21.35-26.15L21.35-26.15Q24.20-24.45 25.98-21.28L25.98-21.28L25.98-21.28Q27.75-18.10 27.75-13.55L27.75-13.55L27.75-13.55Q27.75-9.05 25.98-5.88L25.98-5.88L25.98-5.88Q24.20-2.70 21.35-1.03L21.35-1.03L21.35-1.03Q18.50 0.65 15.15 0.65ZM15.15-3.15L15.15-3.15L15.15-3.15Q18.70-3.15 20.88-6L20.88-6L20.88-6Q23.05-8.85 23.05-13.55L23.05-13.55L23.05-13.55Q23.05-18.25 20.88-21.15L20.88-21.15L20.88-21.15Q18.70-24.05 15.15-24.05L15.15-24.05L15.15-24.05Q11.65-24.05 9.47-21.15L9.47-21.15L9.47-21.15Q7.30-18.25 7.30-13.55L7.30-13.55L7.30-13.55Q7.30-8.85 9.47-6L9.47-6L9.47-6Q11.65-3.15 15.15-3.15Z" transform="translate(64.6 44)" stroke="#1a99d0" stroke-width="2" stroke-linecap="round" stroke-linejoin="round"></path><path fill="#1a99d0" d="M8.30-24.15L5.50-24.15L4.60-33.40L4.50-38.55L9.30-38.55L9.20-33.40L8.30-24.15Z" transform="translate(94.89999999999999 44)" stroke="#1a99d0" stroke-width="2" stroke-linecap="round" stroke-linejoin="round"></path><path fill="#1a99d0" d="M11.70 0.65L11.70 0.65L11.70 0.65Q8.80 0.65 6.18-0.40L6.18-0.40L6.18-0.40Q3.55-1.45 1.55-3.10L1.55-3.10L3.80-6.10L3.80-6.10Q5.55-4.65 7.48-3.78L7.48-3.78L7.48-3.78Q9.40-2.90 11.85-2.90L11.85-2.90L11.85-2.90Q14.55-2.90 15.88-4.15L15.88-4.15L15.88-4.15Q17.20-5.40 17.20-7.15L17.20-7.15L17.20-7.15Q17.20-8.55 16.28-9.47L16.28-9.47L16.28-9.47Q15.35-10.40 13.95-11.08L13.95-11.08L13.95-11.08Q12.55-11.75 11-12.30L11-12.30L11-12.30Q9.05-13 7.20-13.95L7.20-13.95L7.20-13.95Q5.35-14.90 4.13-16.38L4.13-16.38L4.13-16.38Q2.90-17.85 2.90-20.15L2.90-20.15L2.90-20.15Q2.90-23.40 5.38-25.63L5.38-25.63L5.38-25.63Q7.85-27.85 12.25-27.85L12.25-27.85L12.25-27.85Q14.75-27.85 16.93-26.95L16.93-26.95L16.93-26.95Q19.10-26.05 20.70-24.80L20.70-24.80L18.50-21.85L18.50-21.85Q17.10-22.90 15.60-23.58L15.60-23.58L15.60-23.58Q14.10-24.25 12.25-24.25L12.25-24.25L12.25-24.25Q9.70-24.25 8.50-23.10L8.50-23.10L8.50-23.10Q7.30-21.95 7.30-20.35L7.30-20.35L7.30-20.35Q7.30-19.10 8.08-18.30L8.08-18.30L8.08-18.30Q8.85-17.50 10.10-16.93L10.10-16.93L10.10-16.93Q11.35-16.35 12.80-15.85L12.80-15.85L12.80-15.85Q13.05-15.75 13.30-15.65L13.30-15.65L13.30-15.65Q15.30-14.95 17.20-14L17.20-14L17.20-14Q19.10-13.05 20.35-11.53L20.35-11.53L20.35-11.53Q21.60-10 21.60-7.40L21.60-7.40L21.60-7.40Q21.60-4.10 19.05-1.73L19.05-1.73L19.05-1.73Q16.50 0.65 11.70 0.65Z" transform="translate(108.8 44)" stroke="#1a99d0" stroke-width="2" stroke-linecap="round" stroke-linejoin="round"></path><path fill="#1a99d0" d="" transform="translate(132.2 44)" stroke="#1a99d0" stroke-width="2" stroke-linecap="round" stroke-linejoin="round"></path><path fill="#1a99d0" d="M14.40 0L5 0L5-36.65L14.20-36.65L14.20-36.65Q22.65-36.65 27.08-31.93L27.08-31.93L27.08-31.93Q31.50-27.20 31.50-18.45L31.50-18.45L31.50-18.45Q31.50-9.75 27.10-4.88L27.10-4.88L27.10-4.88Q22.70 0 14.40 0L14.40 0ZM9.65-32.90L9.65-3.80L13.80-3.80L13.80-3.80Q20.30-3.80 23.50-7.65L23.50-7.65L23.50-7.65Q26.70-11.50 26.70-18.45L26.70-18.45L26.70-18.45Q26.70-25.45 23.50-29.18L23.50-29.18L23.50-29.18Q20.30-32.90 13.80-32.90L13.80-32.90L9.65-32.90Z" transform="translate(152.1 44)" stroke="#1a99d0" stroke-width="2" stroke-linecap="round" stroke-linejoin="round"></path><path fill="#1a99d0" d="M10.85 0.65L10.85 0.65L10.85 0.65Q7.45 0.65 5.18-1.38L5.18-1.38L5.18-1.38Q2.90-3.40 2.90-7.05L2.90-7.05L2.90-7.05Q2.90-11.50 6.95-13.88L6.95-13.88L6.95-13.88Q11-16.25 19.60-17.20L19.60-17.20L19.60-17.20Q19.60-18.95 19.13-20.53L19.13-20.53L19.13-20.53Q18.65-22.10 17.45-23.08L17.45-23.08L17.45-23.08Q16.25-24.05 14-24.05L14-24.05L14-24.05Q11.65-24.05 9.58-23.18L9.58-23.18L9.58-23.18Q7.50-22.30 5.85-21.15L5.85-21.15L4.05-24.30L4.05-24.30Q5.95-25.55 8.72-26.70L8.72-26.70L8.72-26.70Q11.50-27.85 14.75-27.85L14.75-27.85L14.75-27.85Q19.70-27.85 21.93-24.80L21.93-24.80L21.93-24.80Q24.15-21.75 24.15-16.70L24.15-16.70L24.15 0L20.40 0L20-3.25L19.85-3.25L19.85-3.25Q17.90-1.60 15.63-0.48L15.63-0.48L15.63-0.48Q13.35 0.65 10.85 0.65ZM12.15-3L12.15-3L12.15-3Q14.15-3 15.90-3.93L15.90-3.93L15.90-3.93Q17.65-4.85 19.60-6.60L19.60-6.60L19.60-14.20L19.60-14.20Q12.85-13.40 10.10-11.70L10.10-11.70L10.10-11.70Q7.35-10 7.35-7.35L7.35-7.35L7.35-7.35Q7.35-5.05 8.75-4.03L8.75-4.03L8.75-4.03Q10.15-3 12.15-3Z" transform="translate(186.45 44)" stroke="#1a99d0" stroke-width="2" stroke-linecap="round" stroke-linejoin="round"></path><path fill="#1a99d0" d="M9.15 0L4.60 0L4.60-27.15L9.15-27.15L9.15 0ZM6.90-32.75L6.90-32.75L6.90-32.75Q5.55-32.75 4.65-33.60L4.65-33.60L4.65-33.60Q3.75-34.45 3.75-35.70L3.75-35.70L3.75-35.70Q3.75-38.50 6.90-38.65L6.90-38.65L6.90-38.65Q8.25-38.65 9.15-37.88L9.15-37.88L9.15-37.88Q10.05-37.10 10.05-35.70L10.05-35.70L10.05-35.70Q10.05-34.45 9.15-33.60L9.15-33.60L9.15-33.60Q8.25-32.75 6.90-32.75Z" transform="translate(214.64999999999998 44)" stroke="#1a99d0" stroke-width="2" stroke-linecap="round" stroke-linejoin="round"></path><path fill="#1a99d0" d="M9.40 0.65L9.40 0.65L9.40 0.65Q6.85 0.65 5.73-0.93L5.73-0.93L5.73-0.93Q4.60-2.50 4.60-5.40L4.60-5.40L4.60-39.80L9.15-39.80L9.15-5.10L9.15-5.10Q9.15-4.05 9.55-3.60L9.55-3.60L9.55-3.60Q9.95-3.15 10.45-3.15L10.45-3.15L10.45-3.15Q10.65-3.15 10.85-3.18L10.85-3.18L10.85-3.18Q11.05-3.20 11.40-3.25L11.40-3.25L12.05 0.25L12.05 0.25Q11.20 0.65 9.40 0.65Z" transform="translate(228.39999999999998 44)" stroke="#1a99d0" stroke-width="2" stroke-linecap="round" stroke-linejoin="round"></path><path fill="#1a99d0" d="M5.05 11.70L5.05 11.70L5.05 11.70Q3.10 11.70 1.85 11.15L1.85 11.15L2.75 7.50L2.75 7.50Q3.15 7.65 3.73 7.80L3.73 7.80L3.73 7.80Q4.30 7.95 4.80 7.95L4.80 7.95L4.80 7.95Q7.15 7.95 8.65 6.30L8.65 6.30L8.65 6.30Q10.15 4.65 10.95 2.10L10.95 2.10L11.55 0.05L0.65-27.15L5.40-27.15L10.95-12.05L10.95-12.05Q11.10-11.55 11.30-11.05L11.30-11.05L11.30-11.05Q12.40-7.75 13.55-4.45L13.55-4.45L13.80-4.45L13.80-4.45Q14.30-6 14.75-7.65L14.75-7.65L14.75-7.65Q15.45-9.95 16.10-12.05L16.10-12.05L20.95-27.15L25.40-27.15L15.15 2.25L15.15 2.25Q14.20 4.95 12.88 7.08L12.88 7.08L12.88 7.08Q11.55 9.20 9.65 10.45L9.65 10.45L9.65 10.45Q7.75 11.70 5.05 11.70Z" transform="translate(242.64999999999998 44)" stroke="#1a99d0" stroke-width="2" stroke-linecap="round" stroke-linejoin="round"></path></g></svg></g> <!----></g><g id="shapge_xKbQ7YhkTB" transform="translate(196.69437208973304,165.87968976504416) rotate(0,170.0165,13.86) scale(0.5494256671979714,0.5494256671979714)" filter="" style="cursor: move; opacity: 1;"><g><svg xmlns="http://www.w3.org/2000/svg" version="1.1" xmlns:xlink="http://www.w3.org/1999/xlink" overflow="hidden" style="top:0; left: 0" width="340.033" height="27.72" viewBox="0 0 340.033 27.72" preserveAspectRatio="none" data-parent="shapge_xKbQ7YhkTB"><rect fill="rgba(0,0,0,0)" width="340.033" height="27.72"></rect> <rect opacity="0"></rect><g transform="translate(0 0)" data-width="285.033"><path fill="#5DAB59" d="M3.86 0L2.10 0L2.10-15.39L4.45-15.39L7.41-7.16L7.41-7.16Q7.94-5.57 8.51-3.95L8.51-3.95L8.61-3.95L8.61-3.95Q8.88-4.75 9.13-5.57L9.13-5.57L9.13-5.57Q9.39-6.36 9.66-7.16L9.66-7.16L12.60-15.39L14.95-15.39L14.95 0L13.13 0L13.13-8.53L13.13-8.53Q13.13-9.51 13.21-10.76L13.21-10.76L13.21-10.76Q13.29-12.01 13.38-13.06L13.38-13.06L13.29-13.06L12.08-9.55L9.16-1.55L7.85-1.55L4.94-9.55L3.72-13.06L3.63-13.06L3.63-13.06Q3.65-12.66 3.70-12.20L3.70-12.20L3.70-12.20Q3.86-10.10 3.86-8.53L3.86-8.53L3.86 0Z" transform="translate(0 18.48) skewX(-15)"></path><path fill="#5DAB59" d="M4.56 0.27L4.56 0.27L4.56 0.27Q3.13 0.27 2.17-0.58L2.17-0.58L2.17-0.58Q1.22-1.43 1.22-2.96L1.22-2.96L1.22-2.96Q1.22-4.83 2.92-5.83L2.92-5.83L2.92-5.83Q4.62-6.83 8.23-7.22L8.23-7.22L8.23-7.22Q8.23-7.96 8.03-8.62L8.03-8.62L8.03-8.62Q7.83-9.28 7.33-9.69L7.33-9.69L7.33-9.69Q6.83-10.10 5.88-10.10L5.88-10.10L5.88-10.10Q4.89-10.10 4.02-9.73L4.02-9.73L4.02-9.73Q3.15-9.37 2.46-8.88L2.46-8.88L1.70-10.21L1.70-10.21Q2.50-10.73 3.66-11.21L3.66-11.21L3.66-11.21Q4.83-11.70 6.20-11.70L6.20-11.70L6.20-11.70Q8.27-11.70 9.21-10.42L9.21-10.42L9.21-10.42Q10.14-9.13 10.14-7.01L10.14-7.01L10.14 0L8.57 0L8.40-1.36L8.34-1.36L8.34-1.36Q7.52-0.67 6.56-0.20L6.56-0.20L6.56-0.20Q5.61 0.27 4.56 0.27ZM5.10-1.26L5.10-1.26L5.10-1.26Q5.94-1.26 6.68-1.65L6.68-1.65L6.68-1.65Q7.41-2.04 8.23-2.77L8.23-2.77L8.23-5.96L8.23-5.96Q5.40-5.63 4.24-4.91L4.24-4.91L4.24-4.91Q3.09-4.20 3.09-3.09L3.09-3.09L3.09-3.09Q3.09-2.12 3.68-1.69L3.68-1.69L3.68-1.69Q4.26-1.26 5.10-1.26Z" transform="translate(17.052 18.48) skewX(-15)"></path><path fill="#5DAB59" d="M3.82 0L1.93 0L1.93-16.72L3.82-16.72L3.82-5.38L3.86-5.38L8.76-11.40L10.88-11.40L7.06-6.83L11.38 0L9.30 0L5.96-5.50L3.82-3.00L3.82 0Z" transform="translate(28.896 18.48) skewX(-15)"></path><path fill="#5DAB59" d="M3.84 0L1.93 0L1.93-11.40L3.84-11.40L3.84 0ZM2.90-13.76L2.90-13.76L2.90-13.76Q2.33-13.76 1.95-14.11L1.95-14.11L1.95-14.11Q1.58-14.47 1.58-14.99L1.58-14.99L1.58-14.99Q1.58-16.17 2.90-16.23L2.90-16.23L2.90-16.23Q3.47-16.23 3.84-15.91L3.84-15.91L3.84-15.91Q4.22-15.58 4.22-14.99L4.22-14.99L4.22-14.99Q4.22-14.47 3.84-14.11L3.84-14.11L3.84-14.11Q3.47-13.76 2.90-13.76Z" transform="translate(40.488 18.48) skewX(-15)"></path><path fill="#5DAB59" d="M3.84 0L1.93 0L1.93-11.40L3.51-11.40L3.68-9.77L3.74-9.77L3.74-9.77Q4.56-10.58 5.48-11.14L5.48-11.14L5.48-11.14Q6.41-11.70 7.56-11.70L7.56-11.70L7.56-11.70Q9.37-11.70 10.21-10.55L10.21-10.55L10.21-10.55Q11.05-9.41 11.05-7.22L11.05-7.22L11.05 0L9.13 0L9.13-6.97L9.13-6.97Q9.13-8.59 8.62-9.30L8.62-9.30L8.62-9.30Q8.11-10.02 6.97-10.02L6.97-10.02L6.97-10.02Q6.09-10.02 5.39-9.58L5.39-9.58L5.39-9.58Q4.68-9.13 3.84-8.27L3.84-8.27L3.84 0Z" transform="translate(46.263 18.48) skewX(-15)"></path><path fill="#5DAB59" d="M5.78 5.25L5.78 5.25L5.78 5.25Q3.68 5.25 2.36 4.45L2.36 4.45L2.36 4.45Q1.05 3.65 1.05 2.18L1.05 2.18L1.05 2.18Q1.05 0.74 2.75-0.40L2.75-0.40L2.75-0.48L2.75-0.48Q2.29-0.76 2.00-1.22L2.00-1.22L2.00-1.22Q1.70-1.68 1.70-2.35L1.70-2.35L1.70-2.35Q1.70-3.07 2.11-3.61L2.11-3.61L2.11-3.61Q2.52-4.16 2.98-4.47L2.98-4.47L2.98-4.56L2.98-4.56Q2.39-5.02 1.94-5.81L1.94-5.81L1.94-5.81Q1.49-6.59 1.49-7.62L1.49-7.62L1.49-7.62Q1.49-9.49 2.77-10.59L2.77-10.59L2.77-10.59Q4.05-11.70 5.78-11.70L5.78-11.70L5.78-11.70Q6.72-11.70 7.37-11.40L7.37-11.40L11.34-11.40L11.34-9.93L9.01-9.93L9.01-9.93Q9.93-9.07 9.93-7.58L9.93-7.58L9.93-7.58Q9.93-5.75 8.73-4.68L8.73-4.68L8.73-4.68Q7.52-3.61 5.78-3.61L5.78-3.61L5.78-3.61Q4.94-3.61 4.07-4.01L4.07-4.01L4.07-4.01Q3.76-3.76 3.55-3.44L3.55-3.44L3.55-3.44Q3.34-3.13 3.34-2.65L3.34-2.65L3.34-2.65Q3.34-2.10 3.76-1.75L3.76-1.75L3.76-1.75Q4.18-1.41 5.33-1.41L5.33-1.41L7.56-1.41L7.56-1.41Q11.53-1.41 11.53 1.30L11.53 1.30L11.53 1.30Q11.53 2.90 9.98 4.07L9.98 4.07L9.98 4.07Q8.42 5.25 5.78 5.25ZM5.78-4.91L5.78-4.91L5.78-4.91Q6.76-4.91 7.48-5.65L7.48-5.65L7.48-5.65Q8.19-6.38 8.19-7.62L8.19-7.62L8.19-7.62Q8.19-8.86 7.49-9.58L7.49-9.58L7.49-9.58Q6.78-10.29 5.78-10.29L5.78-10.29L5.78-10.29Q4.77-10.29 4.05-9.59L4.05-9.59L4.05-9.59Q3.34-8.88 3.34-7.62L3.34-7.62L3.34-7.62Q3.34-6.38 4.06-5.65L4.06-5.65L4.06-5.65Q4.79-4.91 5.78-4.91ZM6.05 3.95L6.05 3.95L6.05 3.95Q7.69 3.95 8.68 3.22L8.68 3.22L8.68 3.22Q9.68 2.50 9.68 1.60L9.68 1.60L9.68 1.60Q9.68 0.80 9.08 0.49L9.08 0.49L9.08 0.49Q8.48 0.19 7.35 0.19L7.35 0.19L5.38 0.19L5.38 0.19Q4.75 0.19 3.91 0L3.91 0L3.91 0Q2.73 0.92 2.73 1.93L2.73 1.93L2.73 1.93Q2.73 2.83 3.61 3.39L3.61 3.39L3.61 3.39Q4.49 3.95 6.05 3.95Z" transform="translate(59.094 18.48) skewX(-15)"></path><path fill="#5DAB59" d="" transform="translate(70.917 18.48) skewX(-15)"></path><path fill="#5DAB59" d="M3.84 4.81L1.93 4.81L1.93-11.40L3.51-11.40L3.68-10.10L3.74-10.10L3.74-10.10Q4.52-10.75 5.45-11.22L5.45-11.22L5.45-11.22Q6.38-11.70 7.37-11.70L7.37-11.70L7.37-11.70Q9.58-11.70 10.74-10.10L10.74-10.10L10.74-10.10Q11.91-8.51 11.91-5.88L11.91-5.88L11.91-5.88Q11.91-3.93 11.21-2.55L11.21-2.55L11.21-2.55Q10.52-1.18 9.40-0.45L9.40-0.45L9.40-0.45Q8.27 0.27 6.95 0.27L6.95 0.27L6.95 0.27Q5.42 0.27 3.80-1.05L3.80-1.05L3.84 0.95L3.84 4.81ZM6.64-1.32L6.64-1.32L6.64-1.32Q8.06-1.32 8.99-2.53L8.99-2.53L8.99-2.53Q9.91-3.74 9.91-5.86L9.91-5.86L9.91-5.86Q9.91-7.75 9.22-8.91L9.22-8.91L9.22-8.91Q8.53-10.08 6.91-10.08L6.91-10.08L6.91-10.08Q5.46-10.08 3.84-8.51L3.84-8.51L3.84-2.52L3.84-2.52Q4.62-1.87 5.34-1.60L5.34-1.60L5.34-1.60Q6.07-1.32 6.64-1.32Z" transform="translate(79.275 18.48) skewX(-15)"></path><path fill="#5DAB59" d="M3.84 0L1.93 0L1.93-11.40L3.51-11.40L3.68-9.32L3.74-9.32L3.74-9.32Q4.35-10.42 5.18-11.06L5.18-11.06L5.18-11.06Q6.01-11.70 6.97-11.70L6.97-11.70L6.97-11.70Q7.73-11.70 8.19-11.45L8.19-11.45L7.83-9.77L7.83-9.77Q7.56-9.87 7.32-9.91L7.32-9.91L7.32-9.91Q7.08-9.95 6.72-9.95L6.72-9.95L6.72-9.95Q6.01-9.95 5.22-9.37L5.22-9.37L5.22-9.37Q4.43-8.78 3.84-7.33L3.84-7.33L3.84 0Z" transform="translate(92.295 18.48) skewX(-15)"></path><path fill="#5DAB59" d="M6.36 0.27L6.36 0.27L6.36 0.27Q4.98 0.27 3.77-0.43L3.77-0.43L3.77-0.43Q2.56-1.13 1.82-2.47L1.82-2.47L1.82-2.47Q1.07-3.80 1.07-5.69L1.07-5.69L1.07-5.69Q1.07-7.60 1.82-8.94L1.82-8.94L1.82-8.94Q2.56-10.27 3.77-10.98L3.77-10.98L3.77-10.98Q4.98-11.70 6.36-11.70L6.36-11.70L6.36-11.70Q7.77-11.70 8.97-10.98L8.97-10.98L8.97-10.98Q10.16-10.27 10.91-8.94L10.91-8.94L10.91-8.94Q11.66-7.60 11.66-5.69L11.66-5.69L11.66-5.69Q11.66-3.80 10.91-2.47L10.91-2.47L10.91-2.47Q10.16-1.13 8.97-0.43L8.97-0.43L8.97-0.43Q7.77 0.27 6.36 0.27ZM6.36-1.32L6.36-1.32L6.36-1.32Q7.85-1.32 8.77-2.52L8.77-2.52L8.77-2.52Q9.68-3.72 9.68-5.69L9.68-5.69L9.68-5.69Q9.68-7.67 8.77-8.88L8.77-8.88L8.77-8.88Q7.85-10.10 6.36-10.10L6.36-10.10L6.36-10.10Q4.89-10.10 3.98-8.88L3.98-8.88L3.98-8.88Q3.07-7.67 3.07-5.69L3.07-5.69L3.07-5.69Q3.07-3.72 3.98-2.52L3.98-2.52L3.98-2.52Q4.89-1.32 6.36-1.32Z" transform="translate(100.443 18.48) skewX(-15)"></path><path fill="#5DAB59" d="M5.78 5.25L5.78 5.25L5.78 5.25Q3.68 5.25 2.36 4.45L2.36 4.45L2.36 4.45Q1.05 3.65 1.05 2.18L1.05 2.18L1.05 2.18Q1.05 0.74 2.75-0.40L2.75-0.40L2.75-0.48L2.75-0.48Q2.29-0.76 2.00-1.22L2.00-1.22L2.00-1.22Q1.70-1.68 1.70-2.35L1.70-2.35L1.70-2.35Q1.70-3.07 2.11-3.61L2.11-3.61L2.11-3.61Q2.52-4.16 2.98-4.47L2.98-4.47L2.98-4.56L2.98-4.56Q2.39-5.02 1.94-5.81L1.94-5.81L1.94-5.81Q1.49-6.59 1.49-7.62L1.49-7.62L1.49-7.62Q1.49-9.49 2.77-10.59L2.77-10.59L2.77-10.59Q4.05-11.70 5.78-11.70L5.78-11.70L5.78-11.70Q6.72-11.70 7.37-11.40L7.37-11.40L11.34-11.40L11.34-9.93L9.01-9.93L9.01-9.93Q9.93-9.07 9.93-7.58L9.93-7.58L9.93-7.58Q9.93-5.75 8.73-4.68L8.73-4.68L8.73-4.68Q7.52-3.61 5.78-3.61L5.78-3.61L5.78-3.61Q4.94-3.61 4.07-4.01L4.07-4.01L4.07-4.01Q3.76-3.76 3.55-3.44L3.55-3.44L3.55-3.44Q3.34-3.13 3.34-2.65L3.34-2.65L3.34-2.65Q3.34-2.10 3.76-1.75L3.76-1.75L3.76-1.75Q4.18-1.41 5.33-1.41L5.33-1.41L7.56-1.41L7.56-1.41Q11.53-1.41 11.53 1.30L11.53 1.30L11.53 1.30Q11.53 2.90 9.98 4.07L9.98 4.07L9.98 4.07Q8.42 5.25 5.78 5.25ZM5.78-4.91L5.78-4.91L5.78-4.91Q6.76-4.91 7.48-5.65L7.48-5.65L7.48-5.65Q8.19-6.38 8.19-7.62L8.19-7.62L8.19-7.62Q8.19-8.86 7.49-9.58L7.49-9.58L7.49-9.58Q6.78-10.29 5.78-10.29L5.78-10.29L5.78-10.29Q4.77-10.29 4.05-9.59L4.05-9.59L4.05-9.59Q3.34-8.88 3.34-7.62L3.34-7.62L3.34-7.62Q3.34-6.38 4.06-5.65L4.06-5.65L4.06-5.65Q4.79-4.91 5.78-4.91ZM6.05 3.95L6.05 3.95L6.05 3.95Q7.69 3.95 8.68 3.22L8.68 3.22L8.68 3.22Q9.68 2.50 9.68 1.60L9.68 1.60L9.68 1.60Q9.68 0.80 9.08 0.49L9.08 0.49L9.08 0.49Q8.48 0.19 7.35 0.19L7.35 0.19L5.38 0.19L5.38 0.19Q4.75 0.19 3.91 0L3.91 0L3.91 0Q2.73 0.92 2.73 1.93L2.73 1.93L2.73 1.93Q2.73 2.83 3.61 3.39L3.61 3.39L3.61 3.39Q4.49 3.95 6.05 3.95Z" transform="translate(113.169 18.48) skewX(-15)"></path><path fill="#5DAB59" d="M3.84 0L1.93 0L1.93-11.40L3.51-11.40L3.68-9.32L3.74-9.32L3.74-9.32Q4.35-10.42 5.18-11.06L5.18-11.06L5.18-11.06Q6.01-11.70 6.97-11.70L6.97-11.70L6.97-11.70Q7.73-11.70 8.19-11.45L8.19-11.45L7.83-9.77L7.83-9.77Q7.56-9.87 7.32-9.91L7.32-9.91L7.32-9.91Q7.08-9.95 6.72-9.95L6.72-9.95L6.72-9.95Q6.01-9.95 5.22-9.37L5.22-9.37L5.22-9.37Q4.43-8.78 3.84-7.33L3.84-7.33L3.84 0Z" transform="translate(124.99199999999999 18.48) skewX(-15)"></path><path fill="#5DAB59" d="M6.53 0.27L6.53 0.27L6.53 0.27Q5.02 0.27 3.78-0.43L3.78-0.43L3.78-0.43Q2.54-1.13 1.81-2.48L1.81-2.48L1.81-2.48Q1.07-3.82 1.07-5.69L1.07-5.69L1.07-5.69Q1.07-7.54 1.81-8.88L1.81-8.88L1.81-8.88Q2.54-10.23 3.72-10.96L3.72-10.96L3.72-10.96Q4.89-11.70 6.22-11.70L6.22-11.70L6.22-11.70Q8.40-11.70 9.58-10.24L9.58-10.24L9.58-10.24Q10.75-8.78 10.75-6.34L10.75-6.34L10.75-6.34Q10.75-5.71 10.67-5.25L10.67-5.25L2.98-5.25L2.98-5.25Q3.11-3.40 4.13-2.33L4.13-2.33L4.13-2.33Q5.15-1.26 6.76-1.26L6.76-1.26L6.76-1.26Q7.60-1.26 8.29-1.50L8.29-1.50L8.29-1.50Q8.99-1.74 9.62-2.16L9.62-2.16L10.31-0.90L10.31-0.90Q9.55-0.40 8.63-0.06L8.63-0.06L8.63-0.06Q7.71 0.27 6.53 0.27ZM2.96-6.62L2.96-6.62L9.07-6.62L9.07-6.62Q9.07-10.08 6.24-10.16L6.24-10.16L6.24-10.16Q5.02-10.16 4.10-9.24L4.10-9.24L4.10-9.24Q3.17-8.32 2.96-6.62Z" transform="translate(133.14 18.48) skewX(-15)"></path><path fill="#5DAB59" d="M4.91 0.27L4.91 0.27L4.91 0.27Q3.70 0.27 2.59-0.17L2.59-0.17L2.59-0.17Q1.49-0.61 0.65-1.30L0.65-1.30L1.60-2.56L1.60-2.56Q2.33-1.95 3.14-1.59L3.14-1.59L3.14-1.59Q3.95-1.22 4.98-1.22L4.98-1.22L4.98-1.22Q6.11-1.22 6.67-1.74L6.67-1.74L6.67-1.74Q7.22-2.27 7.22-3.00L7.22-3.00L7.22-3.00Q7.22-3.59 6.84-3.98L6.84-3.98L6.84-3.98Q6.45-4.37 5.86-4.65L5.86-4.65L5.86-4.65Q5.27-4.94 4.62-5.17L4.62-5.17L4.62-5.17Q3.80-5.46 3.02-5.86L3.02-5.86L3.02-5.86Q2.25-6.26 1.73-6.88L1.73-6.88L1.73-6.88Q1.22-7.50 1.22-8.46L1.22-8.46L1.22-8.46Q1.22-9.83 2.26-10.76L2.26-10.76L2.26-10.76Q3.30-11.70 5.15-11.70L5.15-11.70L5.15-11.70Q6.20-11.70 7.11-11.32L7.11-11.32L7.11-11.32Q8.02-10.94 8.69-10.42L8.69-10.42L7.77-9.18L7.77-9.18Q7.18-9.62 6.55-9.90L6.55-9.90L6.55-9.90Q5.92-10.19 5.15-10.19L5.15-10.19L5.15-10.19Q4.07-10.19 3.57-9.70L3.57-9.70L3.57-9.70Q3.07-9.22 3.07-8.55L3.07-8.55L3.07-8.55Q3.07-8.02 3.39-7.69L3.39-7.69L3.39-7.69Q3.72-7.35 4.24-7.11L4.24-7.11L4.24-7.11Q4.77-6.87 5.38-6.66L5.38-6.66L5.38-6.66Q5.48-6.62 5.59-6.57L5.59-6.57L5.59-6.57Q6.43-6.28 7.22-5.88L7.22-5.88L7.22-5.88Q8.02-5.48 8.55-4.84L8.55-4.84L8.55-4.84Q9.07-4.20 9.07-3.11L9.07-3.11L9.07-3.11Q9.07-1.72 8.00-0.72L8.00-0.72L8.00-0.72Q6.93 0.27 4.91 0.27Z" transform="translate(144.774 18.48) skewX(-15)"></path><path fill="#5DAB59" d="M4.91 0.27L4.91 0.27L4.91 0.27Q3.70 0.27 2.59-0.17L2.59-0.17L2.59-0.17Q1.49-0.61 0.65-1.30L0.65-1.30L1.60-2.56L1.60-2.56Q2.33-1.95 3.14-1.59L3.14-1.59L3.14-1.59Q3.95-1.22 4.98-1.22L4.98-1.22L4.98-1.22Q6.11-1.22 6.67-1.74L6.67-1.74L6.67-1.74Q7.22-2.27 7.22-3.00L7.22-3.00L7.22-3.00Q7.22-3.59 6.84-3.98L6.84-3.98L6.84-3.98Q6.45-4.37 5.86-4.65L5.86-4.65L5.86-4.65Q5.27-4.94 4.62-5.17L4.62-5.17L4.62-5.17Q3.80-5.46 3.02-5.86L3.02-5.86L3.02-5.86Q2.25-6.26 1.73-6.88L1.73-6.88L1.73-6.88Q1.22-7.50 1.22-8.46L1.22-8.46L1.22-8.46Q1.22-9.83 2.26-10.76L2.26-10.76L2.26-10.76Q3.30-11.70 5.15-11.70L5.15-11.70L5.15-11.70Q6.20-11.70 7.11-11.32L7.11-11.32L7.11-11.32Q8.02-10.94 8.69-10.42L8.69-10.42L7.77-9.18L7.77-9.18Q7.18-9.62 6.55-9.90L6.55-9.90L6.55-9.90Q5.92-10.19 5.15-10.19L5.15-10.19L5.15-10.19Q4.07-10.19 3.57-9.70L3.57-9.70L3.57-9.70Q3.07-9.22 3.07-8.55L3.07-8.55L3.07-8.55Q3.07-8.02 3.39-7.69L3.39-7.69L3.39-7.69Q3.72-7.35 4.24-7.11L4.24-7.11L4.24-7.11Q4.77-6.87 5.38-6.66L5.38-6.66L5.38-6.66Q5.48-6.62 5.59-6.57L5.59-6.57L5.59-6.57Q6.43-6.28 7.22-5.88L7.22-5.88L7.22-5.88Q8.02-5.48 8.55-4.84L8.55-4.84L8.55-4.84Q9.07-4.20 9.07-3.11L9.07-3.11L9.07-3.11Q9.07-1.72 8.00-0.72L8.00-0.72L8.00-0.72Q6.93 0.27 4.91 0.27Z" transform="translate(154.602 18.48) skewX(-15)"></path><path fill="#5DAB59" d="" transform="translate(164.43 18.48) skewX(-15)"></path><path fill="#5DAB59" d="M5.82 0.27L5.82 0.27L5.82 0.27Q3.68 0.27 2.39-1.28L2.39-1.28L2.39-1.28Q1.11-2.83 1.11-5.69L1.11-5.69L1.11-5.69Q1.11-7.54 1.81-8.88L1.81-8.88L1.81-8.88Q2.50-10.23 3.62-10.96L3.62-10.96L3.62-10.96Q4.75-11.70 6.05-11.70L6.05-11.70L6.05-11.70Q7.06-11.70 7.79-11.34L7.79-11.34L7.79-11.34Q8.53-10.98 9.26-10.35L9.26-10.35L9.16-12.33L9.16-16.72L11.07-16.72L11.07 0L9.51 0L9.32-1.34L9.28-1.34L9.28-1.34Q8.61-0.67 7.73-0.20L7.73-0.20L7.73-0.20Q6.85 0.27 5.82 0.27ZM6.24-1.32L6.24-1.32L6.24-1.32Q7.81-1.32 9.16-2.90L9.16-2.90L9.16-8.88L9.16-8.88Q7.81-10.08 6.38-10.08L6.38-10.08L6.38-10.08Q5.00-10.08 4.04-8.87L4.04-8.87L4.04-8.87Q3.09-7.67 3.09-5.71L3.09-5.71L3.09-5.71Q3.09-3.65 3.91-2.49L3.91-2.49L3.91-2.49Q4.73-1.32 6.24-1.32Z" transform="translate(172.788 18.48) skewX(-15)"></path><path fill="#5DAB59" d="M4.56 0.27L4.56 0.27L4.56 0.27Q3.13 0.27 2.17-0.58L2.17-0.58L2.17-0.58Q1.22-1.43 1.22-2.96L1.22-2.96L1.22-2.96Q1.22-4.83 2.92-5.83L2.92-5.83L2.92-5.83Q4.62-6.83 8.23-7.22L8.23-7.22L8.23-7.22Q8.23-7.96 8.03-8.62L8.03-8.62L8.03-8.62Q7.83-9.28 7.33-9.69L7.33-9.69L7.33-9.69Q6.83-10.10 5.88-10.10L5.88-10.10L5.88-10.10Q4.89-10.10 4.02-9.73L4.02-9.73L4.02-9.73Q3.15-9.37 2.46-8.88L2.46-8.88L1.70-10.21L1.70-10.21Q2.50-10.73 3.66-11.21L3.66-11.21L3.66-11.21Q4.83-11.70 6.20-11.70L6.20-11.70L6.20-11.70Q8.27-11.70 9.21-10.42L9.21-10.42L9.21-10.42Q10.14-9.13 10.14-7.01L10.14-7.01L10.14 0L8.57 0L8.40-1.36L8.34-1.36L8.34-1.36Q7.52-0.67 6.56-0.20L6.56-0.20L6.56-0.20Q5.61 0.27 4.56 0.27ZM5.10-1.26L5.10-1.26L5.10-1.26Q5.94-1.26 6.68-1.65L6.68-1.65L6.68-1.65Q7.41-2.04 8.23-2.77L8.23-2.77L8.23-5.96L8.23-5.96Q5.40-5.63 4.24-4.91L4.24-4.91L4.24-4.91Q3.09-4.20 3.09-3.09L3.09-3.09L3.09-3.09Q3.09-2.12 3.68-1.69L3.68-1.69L3.68-1.69Q4.26-1.26 5.10-1.26Z" transform="translate(185.80800000000002 18.48) skewX(-15)"></path><path fill="#5DAB59" d="M2.12 4.91L2.12 4.91L2.12 4.91Q1.30 4.91 0.78 4.68L0.78 4.68L1.16 3.15L1.16 3.15Q1.32 3.21 1.56 3.28L1.56 3.28L1.56 3.28Q1.81 3.34 2.02 3.34L2.02 3.34L2.02 3.34Q3.00 3.34 3.63 2.65L3.63 2.65L3.63 2.65Q4.26 1.95 4.60 0.88L4.60 0.88L4.85 0.02L0.27-11.40L2.27-11.40L4.60-5.06L4.60-5.06Q4.66-4.85 4.75-4.64L4.75-4.64L4.75-4.64Q5.21-3.26 5.69-1.87L5.69-1.87L5.80-1.87L5.80-1.87Q6.01-2.52 6.20-3.21L6.20-3.21L6.20-3.21Q6.49-4.18 6.76-5.06L6.76-5.06L8.80-11.40L10.67-11.40L6.36 0.95L6.36 0.95Q5.96 2.08 5.41 2.97L5.41 2.97L5.41 2.97Q4.85 3.86 4.05 4.39L4.05 4.39L4.05 4.39Q3.26 4.91 2.12 4.91Z" transform="translate(197.65200000000002 18.48) skewX(-15)"></path><path fill="#5DAB59" d="" transform="translate(208.59300000000002 18.48) skewX(-15)"></path><path fill="#5DAB59" d="M6.95 0.27L6.95 0.27L6.95 0.27Q5.38 0.27 3.70-1.18L3.70-1.18L3.63-1.18L3.47 0L1.93 0L1.93-16.72L3.84-16.72L3.84-12.14L3.78-10.08L3.78-10.08Q4.56-10.77 5.48-11.24L5.48-11.24L5.48-11.24Q6.41-11.70 7.35-11.70L7.35-11.70L7.35-11.70Q9.58-11.70 10.74-10.11L10.74-10.11L10.74-10.11Q11.91-8.53 11.91-5.90L11.91-5.90L11.91-5.90Q11.91-3.95 11.21-2.56L11.21-2.56L11.21-2.56Q10.52-1.18 9.40-0.45L9.40-0.45L9.40-0.45Q8.27 0.27 6.95 0.27ZM6.64-1.32L6.64-1.32L6.64-1.32Q8.06-1.32 8.99-2.53L8.99-2.53L8.99-2.53Q9.91-3.74 9.91-5.86L9.91-5.86L9.91-5.86Q9.91-7.75 9.22-8.91L9.22-8.91L9.22-8.91Q8.53-10.08 6.91-10.08L6.91-10.08L6.91-10.08Q5.46-10.08 3.84-8.51L3.84-8.51L3.84-2.52L3.84-2.52Q4.60-1.87 5.33-1.60L5.33-1.60L5.33-1.60Q6.07-1.32 6.64-1.32Z" transform="translate(216.95100000000002 18.48) skewX(-15)"></path><path fill="#5DAB59" d="M2.12 4.91L2.12 4.91L2.12 4.91Q1.30 4.91 0.78 4.68L0.78 4.68L1.16 3.15L1.16 3.15Q1.32 3.21 1.56 3.28L1.56 3.28L1.56 3.28Q1.81 3.34 2.02 3.34L2.02 3.34L2.02 3.34Q3.00 3.34 3.63 2.65L3.63 2.65L3.63 2.65Q4.26 1.95 4.60 0.88L4.60 0.88L4.85 0.02L0.27-11.40L2.27-11.40L4.60-5.06L4.60-5.06Q4.66-4.85 4.75-4.64L4.75-4.64L4.75-4.64Q5.21-3.26 5.69-1.87L5.69-1.87L5.80-1.87L5.80-1.87Q6.01-2.52 6.20-3.21L6.20-3.21L6.20-3.21Q6.49-4.18 6.76-5.06L6.76-5.06L8.80-11.40L10.67-11.40L6.36 0.95L6.36 0.95Q5.96 2.08 5.41 2.97L5.41 2.97L5.41 2.97Q4.85 3.86 4.05 4.39L4.05 4.39L4.05 4.39Q3.26 4.91 2.12 4.91Z" transform="translate(229.92900000000003 18.48) skewX(-15)"></path><path fill="#5DAB59" d="" transform="translate(240.87000000000003 18.48) skewX(-15)"></path><path fill="#5DAB59" d="M5.82 0.27L5.82 0.27L5.82 0.27Q3.68 0.27 2.39-1.28L2.39-1.28L2.39-1.28Q1.11-2.83 1.11-5.69L1.11-5.69L1.11-5.69Q1.11-7.54 1.81-8.88L1.81-8.88L1.81-8.88Q2.50-10.23 3.62-10.96L3.62-10.96L3.62-10.96Q4.75-11.70 6.05-11.70L6.05-11.70L6.05-11.70Q7.06-11.70 7.79-11.34L7.79-11.34L7.79-11.34Q8.53-10.98 9.26-10.35L9.26-10.35L9.16-12.33L9.16-16.72L11.07-16.72L11.07 0L9.51 0L9.32-1.34L9.28-1.34L9.28-1.34Q8.61-0.67 7.73-0.20L7.73-0.20L7.73-0.20Q6.85 0.27 5.82 0.27ZM6.24-1.32L6.24-1.32L6.24-1.32Q7.81-1.32 9.16-2.90L9.16-2.90L9.16-8.88L9.16-8.88Q7.81-10.08 6.38-10.08L6.38-10.08L6.38-10.08Q5.00-10.08 4.04-8.87L4.04-8.87L4.04-8.87Q3.09-7.67 3.09-5.71L3.09-5.71L3.09-5.71Q3.09-3.65 3.91-2.49L3.91-2.49L3.91-2.49Q4.73-1.32 6.24-1.32Z" transform="translate(249.22800000000004 18.48) skewX(-15)"></path><path fill="#5DAB59" d="M4.56 0.27L4.56 0.27L4.56 0.27Q3.13 0.27 2.17-0.58L2.17-0.58L2.17-0.58Q1.22-1.43 1.22-2.96L1.22-2.96L1.22-2.96Q1.22-4.83 2.92-5.83L2.92-5.83L2.92-5.83Q4.62-6.83 8.23-7.22L8.23-7.22L8.23-7.22Q8.23-7.96 8.03-8.62L8.03-8.62L8.03-8.62Q7.83-9.28 7.33-9.69L7.33-9.69L7.33-9.69Q6.83-10.10 5.88-10.10L5.88-10.10L5.88-10.10Q4.89-10.10 4.02-9.73L4.02-9.73L4.02-9.73Q3.15-9.37 2.46-8.88L2.46-8.88L1.70-10.21L1.70-10.21Q2.50-10.73 3.66-11.21L3.66-11.21L3.66-11.21Q4.83-11.70 6.20-11.70L6.20-11.70L6.20-11.70Q8.27-11.70 9.21-10.42L9.21-10.42L9.21-10.42Q10.14-9.13 10.14-7.01L10.14-7.01L10.14 0L8.57 0L8.40-1.36L8.34-1.36L8.34-1.36Q7.52-0.67 6.56-0.20L6.56-0.20L6.56-0.20Q5.61 0.27 4.56 0.27ZM5.10-1.26L5.10-1.26L5.10-1.26Q5.94-1.26 6.68-1.65L6.68-1.65L6.68-1.65Q7.41-2.04 8.23-2.77L8.23-2.77L8.23-5.96L8.23-5.96Q5.40-5.63 4.24-4.91L4.24-4.91L4.24-4.91Q3.09-4.20 3.09-3.09L3.09-3.09L3.09-3.09Q3.09-2.12 3.68-1.69L3.68-1.69L3.68-1.69Q4.26-1.26 5.10-1.26Z" transform="translate(262.24800000000005 18.48) skewX(-15)"></path><path fill="#5DAB59" d="M2.12 4.91L2.12 4.91L2.12 4.91Q1.30 4.91 0.78 4.68L0.78 4.68L1.16 3.15L1.16 3.15Q1.32 3.21 1.56 3.28L1.56 3.28L1.56 3.28Q1.81 3.34 2.02 3.34L2.02 3.34L2.02 3.34Q3.00 3.34 3.63 2.65L3.63 2.65L3.63 2.65Q4.26 1.95 4.60 0.88L4.60 0.88L4.85 0.02L0.27-11.40L2.27-11.40L4.60-5.06L4.60-5.06Q4.66-4.85 4.75-4.64L4.75-4.64L4.75-4.64Q5.21-3.26 5.69-1.87L5.69-1.87L5.80-1.87L5.80-1.87Q6.01-2.52 6.20-3.21L6.20-3.21L6.20-3.21Q6.49-4.18 6.76-5.06L6.76-5.06L8.80-11.40L10.67-11.40L6.36 0.95L6.36 0.95Q5.96 2.08 5.41 2.97L5.41 2.97L5.41 2.97Q4.85 3.86 4.05 4.39L4.05 4.39L4.05 4.39Q3.26 4.91 2.12 4.91Z" transform="translate(274.09200000000004 18.48) skewX(-15)"></path></g></svg></g> <!----></g>  <!----></svg>